<?xml version="1.0" encoding="UTF-8"?>
<!DOCTYPE svg PUBLIC "-//W3C//DTD SVG 1.1//EN" "http://www.w3.org/Graphics/SVG/1.1/DTD/svg11.dtd">
<!-- Creator: CorelDRAW X8 -->
<svg xmlns="http://www.w3.org/2000/svg" xml:space="preserve" width="139.556mm" height="40.2086mm" version="1.1" style="shape-rendering:geometricPrecision; text-rendering:geometricPrecision; image-rendering:optimizeQuality; fill-rule:evenodd; clip-rule:evenodd"
viewBox="0 0 13956 4021"
 xmlns:xlink="http://www.w3.org/1999/xlink">
 <defs>
  <style type="text/css">
   <![CDATA[
    .fil1 {fill:#ed1c24}
    .fil0 {fill:#939598;fill-rule:nonzero}
    .fil2 {fill:#ed1c24;fill-rule:nonzero}
    .fil3 {fill:#ed1c24;fill-rule:nonzero}
   ]]>
  </style>
 </defs>
 <g id="Слой_x0020_1">
  <metadata id="CorelCorpID_0Corel-Layer"/>
  <g id="_15427280224">
   <path class="fil0" d="M2268 1973c-502,0 -866,399 -866,922 0,379 215,636 590,636 500,0 865,-399 865,-922 0,-379 -215,-636 -589,-636zm-210 1185c-163,0 -246,-130 -246,-310 0,-276 156,-502 388,-502 161,0 246,129 246,307 0,279 -158,505 -388,505zm1907 -20l-336 0 200 -1132 -268 0 -511 160 -68 393 353 -90 -119 669 -366 0 -64 360 1115 0 64 -360zm766 0l138 -136c351,-342 439,-443 439,-621 0,-228 -182,-408 -498,-408 -358,0 -582,217 -646,524l409 0c22,-81 83,-129 160,-129 72,0 99,42 99,90 0,79 -64,129 -237,301l-551 539 -33 200 1117 0 63 -360 -460 0z"/>
   <path class="fil1" d="M6362 3843l-5739 0c-209,0 -381,-172 -381,-382l0 -206c-40,-61 -151,-297 -178,-322l0 528c0,308 252,560 559,560l12184 0c609,0 999,-467 1035,-1035l112 -1784c41,-660 -542,-1202 -1203,-1202l-5709 0c-381,0 -747,90 -1043,328 -122,97 -230,212 -321,339l0 1c-14,21 -28,42 -43,63 -251,351 -644,577 -1076,612 -38,3 -77,4 -116,4l-1158 0c-39,0 -78,-1 -116,-4l-1 0 -623 0c-3,9 -51,17 -55,27l-85 36c-2,3 -4,5 -6,8 -17,20 115,8 93,31 -28,28 -55,53 -82,76l751 0 1407 0c200,-15 391,-67 565,-148 120,-57 233,-127 335,-209 120,-96 227,-209 316,-335 13,-20 26,-40 40,-60 272,-381 717,-591 1218,-591l5709 0c563,0 1059,463 1024,1024l-113 1829c-23,435 -375,788 -810,810 -15,1 -30,2 -45,2l-638 0 -5127 0 -680 0z"/>
   <g>
    <path class="fil2" d="M844 2727l49 44c106,94 156,194 150,298 -6,104 -69,224 -189,359 -86,97 -161,149 -224,155 -64,7 -141,-30 -231,-110l-57 -51c109,-63 195,-131 259,-204 121,-136 202,-299 243,-491z"/>
    <path class="fil2" d="M2542 929l63 56c83,73 124,141 123,203 0,62 -42,140 -126,235 -118,133 -229,210 -332,233 -104,22 -204,-9 -302,-96l-59 -52c178,-66 332,-172 460,-317 74,-83 132,-171 173,-262z"/>
    <path class="fil2" d="M1946 661c183,35 362,107 538,216 -53,93 -112,178 -180,254 -114,129 -269,235 -463,317l-28 -25c-131,-116 -373,25 -725,422 -364,410 -480,674 -349,790l28 24c-41,207 -121,377 -238,510 -70,78 -153,144 -251,197 -121,-153 -214,-322 -278,-510 86,-224 194,-440 324,-650 131,-209 283,-411 456,-606 180,-203 366,-383 560,-540 195,-156 396,-289 606,-399z"/>
   </g>
   <path class="fil3" d="M7292 717c-780,0 -1354,538 -1354,1181 0,438 309,776 827,836l-642 775 900 0 896 -1117c196,-245 341,-490 341,-791 0,-498 -358,-884 -968,-884zm56 1310c-80,60 -197,96 -305,96 -217,0 -346,-156 -346,-325 0,-213 213,-434 478,-434 217,0 346,161 346,333 0,89 -32,161 -141,294l-32 36zm2098 -583l1181 0 116 -667 -1920 0 -277 1555 916 0c245,0 373,105 373,253 0,205 -196,362 -450,362 -201,0 -321,-113 -333,-285l-747 0c-29,546 329,908 972,908 747,0 1302,-446 1302,-1101 0,-430 -282,-756 -860,-756l-322 0 49 -269zm3363 611c265,-137 430,-362 430,-647 0,-414 -346,-691 -880,-691 -647,0 -1165,374 -1165,888 0,185 88,337 245,442 -350,153 -575,430 -575,787 0,458 350,736 993,736 807,0 1293,-394 1293,-973 0,-233 -124,-422 -341,-542zm-550 -780c164,0 273,101 273,242 0,180 -169,325 -370,325 -161,0 -273,-104 -273,-245 0,-185 173,-322 370,-322zm-294 1684c-177,0 -293,-113 -293,-269 0,-201 185,-350 402,-350 172,0 293,109 293,261 0,201 -189,358 -402,358z"/>
  </g>
 </g>
</svg>
