<svg id="Layer_1" data-name="Layer 1" xmlns="http://www.w3.org/2000/svg" viewBox="0 0 741.86 799.25"><defs><style>.cls-1{fill:#6caa28;}.cls-1,.cls-2,.cls-3{fill-rule:evenodd;}.cls-2{fill:#6c7078;}.cls-3{fill:#b9ce1a;}</style></defs><title>langu sticker</title><path class="cls-1" d="M433.92,12.21c-233.34,240.56-2.49,500.93,2,497,274.59-225.72-2-497-2-497h0Zm88,309.58L439.76,354l-0.7-82.16,73-72.8c8.91,27.81,14.34,57.74,13.47,88.64a219.47,219.47,0,0,1-3.67,34.1h0ZM437.31,64.25c22.21,27.8,53.49,73.28,72.29,127.57L439,262.18,437.31,64.25h0ZM432,255.83l-59.79-82.15Q388.71,116.4,430.4,64.2L432,255.83h0Zm-62.16-73.67,62.25,85.54,0.7,82.77L364.9,294.25a302.2,302.2,0,0,1-3.2-33.55,275.57,275.57,0,0,1,8.18-78.54h0Zm-3.12,122.59,66.16,54.75,0.83,99.17c-22.08-30.76-54.47-86.44-67-153.91h0Zm73.92,157.69-0.85-101,80.37-31.54C509.49,377.28,482.89,421.69,440.67,462.44Z" transform="translate(-68.27 -12.21)"/><path class="cls-2" d="M158.17,142.05a76.36,76.36,0,0,1,12.93,5.35,141.67,141.67,0,0,1,24.85,16.23,140.24,140.24,0,0,1,21.15,20.83,74.65,74.65,0,0,1,8,11.51,74.77,74.77,0,0,1-12.94-5.34,139.9,139.9,0,0,1-24.84-16.25,141.73,141.73,0,0,1-21.15-20.83A75.13,75.13,0,0,1,158.17,142.05Z" transform="translate(-68.27 -12.21)"/><path class="cls-2" d="M254.47,89.91a76.41,76.41,0,0,1,5,13.07,142,142,0,0,1,5.32,29.2,140.29,140.29,0,0,1-.55,29.68,74.94,74.94,0,0,1-2.87,13.7,75.47,75.47,0,0,1-5-13.06A141.09,141.09,0,0,1,251,133.3a142.08,142.08,0,0,1,.57-29.68A75.64,75.64,0,0,1,254.47,89.91Z" transform="translate(-68.27 -12.21)"/><path class="cls-2" d="M705.81,142.05a76.49,76.49,0,0,0-12.93,5.35A142,142,0,0,0,668,163.64a140.33,140.33,0,0,0-21.15,20.83,75,75,0,0,0-8,11.51,74.38,74.38,0,0,0,12.94-5.34,139.55,139.55,0,0,0,24.84-16.25,141.66,141.66,0,0,0,21.15-20.83A75.53,75.53,0,0,0,705.81,142.05Z" transform="translate(-68.27 -12.21)"/><path class="cls-2" d="M609.51,89.91a76.6,76.6,0,0,0-5,13.07,142,142,0,0,0-5.32,29.2,140.18,140.18,0,0,0,.56,29.68,75.27,75.27,0,0,0,2.86,13.7,74.35,74.35,0,0,0,5-13.06,140,140,0,0,0,5.31-29.2,142.51,142.51,0,0,0-.57-29.68A75,75,0,0,0,609.51,89.91Z" transform="translate(-68.27 -12.21)"/><path class="cls-3" d="M810,212.2C548.94,225.48,542.3,496.83,546.95,497,823.7,514.08,810,212.2,810,212.2h0ZM695.67,435.7l-64-25.27,43.28-47.27,80.39-2.73c-9.7,20.61-22.49,40.58-39.43,57.75a170.53,170.53,0,0,1-20.22,17.51h0Zm88.62-192c-2.1,27.68-8.42,70.28-26.54,111.25L680,357.59,784.29,243.71h0ZM679.43,350.27L689,271.59q39.85-23.94,91.4-31.57l-101,110.25h0Zm3.7-75.1-9.95,81.92-43.61,47.63-8.89-68.21a235.65,235.65,0,0,1,16-20.85,215.07,215.07,0,0,1,46.43-40.49h0Zm-67,68.32,8.66,66.41L572.59,467c3.74-29.31,14.86-78.3,43.58-123.47h0ZM574.53,472.81l53.23-58.13L690.4,439.4C659.09,460.78,620.29,472,574.53,472.81Z" transform="translate(-68.27 -12.21)"/><path class="cls-3" d="M331.45,497c4.64-.13-2-271.49-263.08-284.76,0,0-13.67,301.87,263.08,284.76h0ZM162.51,418.18C145.58,401,132.78,381,123.07,360.43l80.4,2.73,43.28,47.27-64,25.27a171,171,0,0,1-20.22-17.51h0Zm35.87-60.59L120.66,355c-18.12-41-24.44-83.57-26.54-111.26L198.38,357.59h0ZM98,240q51.46,7.59,91.41,31.57L199,350.27,98,240h0Zm143.69,75.64a237.61,237.61,0,0,1,16,20.85l-8.89,68.21-43.61-47.63-9.93-81.92a215.22,215.22,0,0,1,46.43,40.49h0ZM305.82,467l-52.24-57.05,8.66-66.42C291,388.66,302.08,437.66,305.82,467h0ZM188,439.4l62.65-24.72,53.22,58.13C258.11,472,219.31,460.78,188,439.4Z" transform="translate(-68.27 -12.21)"/><path class="cls-2" d="M338.38,735.89c0.1-2.14.23-3.65,0.23-5.16q0-67.07,0-134.13a55.54,55.54,0,0,0-1-10.24,18.4,18.4,0,0,0-7.38-11.87,22.39,22.39,0,0,0-35.45,14.12,36.11,36.11,0,0,0-.54,6.26q0,68.21,0,136.42c0,1.45.27,2.9,0.44,4.59h43.76Zm17.28,67.93c-2.16.12-3.84,0.27-5.52,0.29-3.59,0-7.19,0-11.39,0V751.85H294.31v51.87H277.14c-0.57-5.48-.18-11.15-0.25-16.79-0.07-5.93,0-11.86,0-17.79V751.42c-6.09,0-11.59-.18-17.07.07a7.82,7.82,0,0,1-7.27-3.45c-2.74-3.64-5.79-7.05-9.14-11.09,5.93-1.45,11.39-.57,16.76-0.73s10.63,0,16.73,0V729q0-65.12.05-130.24a92.91,92.91,0,0,1,1.24-15.4c2.74-15.93,11.95-24.67,28.16-27.34a59.6,59.6,0,0,1,23.35.88c14.48,3.37,22.69,12.7,25,27.22a83.18,83.18,0,0,1,1.13,13.12q0.11,101,0,202C355.9,800.48,355.77,801.81,355.67,803.82Z" transform="translate(-68.27 -12.21)"/><path class="cls-2" d="M392.12,562.68l56.64,96.68,1.17-.15c0-5.14.11-10.28,0.13-15.41,0-5.55,0-11.1,0-16.64V561.94h17V803.77H450.33c-0.09-2.25-.24-4.46-0.25-6.68,0-32.51-.05-65,0-97.55a19.77,19.77,0,0,0-2.86-10.8c-11.73-19.49-23.27-39.11-34.87-58.67-1-1.62-1.94-3.22-2.85-4.74a4.49,4.49,0,0,0-.87.28,0.76,0.76,0,0,0-.34.4,10,10,0,0,0-.19,1.7q0,86.93-.09,173.86a5.06,5.06,0,0,1-.21,1.11c0,0.19-.13.36-0.35,1H391.12V563Z" transform="translate(-68.27 -12.21)"/><path class="cls-2" d="M671.71,561.87h16.81c0.16,1.53.45,3,.45,4.41q0,101.88,0,203.75a59.91,59.91,0,0,1-1.12,10.81c-3,16-13.29,26.23-29.36,28.77a54,54,0,0,1-22.78-1C620.77,804.52,613.38,794,611,779.36a77.77,77.77,0,0,1-1-12.57q-0.09-99.58,0-199.16V562h17.4v7.32q0,98.14,0,196.29a76,76,0,0,0,.78,12c1.69,10.52,8.95,16.76,19.74,17.35,11.32,0.62,19.89-5.09,22.45-15.5A52.84,52.84,0,0,0,671.65,767q0.12-99,.05-198v-7.11Z" transform="translate(-68.27 -12.21)"/><path class="cls-2" d="M574.79,553.85v17.67C530.26,599.5,506,639,509.14,692.68c2,33.85,25.33,74.63,48.58,87.76,0.1-10.28,0-20.12,0-30s0-19.89,0-29.83v-30.2h17v121a17.88,17.88,0,0,1-3.58-1.05c-43.84-24-71.58-59.74-78.67-109.78-8.23-58.11,22.56-117.25,78.23-145.28A41.76,41.76,0,0,1,574.79,553.85Z" transform="translate(-68.27 -12.21)"/><path class="cls-2" d="M194.71,561.82h17.13v7.58q0,98.62,0,197.26a78.41,78.41,0,0,0,.64,10.85c1,6.79,4.47,10.33,11.35,10.72,8.77,0.49,17.57.37,26.36,0.5,2,0,4.09,0,6.38,0v14.58a4.62,4.62,0,0,1-1.36.65c-12.21-.22-24.43-0.42-36.64-0.77a26.74,26.74,0,0,1-6.16-1.24c-9.11-2.53-15.08-8.14-16.43-17.76a124.43,124.43,0,0,1-1.48-17.1q-0.16-100.35-.07-200.7C194.45,565.08,194.6,563.75,194.71,561.82Z" transform="translate(-68.27 -12.21)"/></svg>